<?xml version="1.0" ?><svg height="60px" version="1.1" viewBox="0 0 60 60" width="60px" xmlns="http://www.w3.org/2000/svg" xmlns:sketch="http://www.bohemiancoding.com/sketch/ns" xmlns:xlink="http://www.w3.org/1999/xlink"><title/><defs/><g fill="none" fill-rule="evenodd" id="black" stroke="none" stroke-width="1"><g id="steam"><path d="M30,60 C46.5685433,60 60,46.5685433 60,30 C60,13.4314567 46.5685433,0 30,0 C13.4314567,0 0,13.4314567 0,30 C0,46.5685433 13.4314567,60 30,60 Z" fill="#000000"/><path d="M42.2822145,28.2535104 C40.5865507,28.2535104 39.2142564,26.8009474 39.2142564,25.0098701 C39.2142564,23.2187927 40.586919,21.7666206 42.2822145,21.7666206 C43.9760367,21.7666206 45.3494359,23.2187927 45.3494359,25.0098701 C45.3494359,26.8009474 43.9760367,28.2535104 42.2822145,28.2535104 Z M44.3220513,31.1144622 L40.1842051,34.8564777 C40.2289231,35.1551771 40.2596923,35.4586661 40.2596923,35.7699928 C40.2596923,38.9555391 37.8166154,41.5384615 34.8045128,41.5384615 C32.2059487,41.5384615 30.0361026,39.6165095 29.486359,37.044908 L19.2586667,33.375608 C18.4500513,34.0243865 17.4453333,34.4140891 16.3524103,34.4140891 C13.6939487,34.4140891 11.5384615,32.1350911 11.5384615,29.3240076 C11.5384615,26.5133595 13.6939487,24.2347969 16.3524103,24.2347969 C18.638359,24.2347969 20.5481026,25.9198795 21.0408205,28.1775418 L30.9206154,31.7223112 C31.8830769,30.6907968 33.2106667,30.0441953 34.6810256,30.0093616 L36.1608205,25.2528132 C36.1567179,25.1583266 36.1481026,25.0651464 36.1481026,24.969789 C36.1481026,21.3753815 38.9046154,18.4615385 42.3044103,18.4615385 C45.7050256,18.4615385 48.4615385,21.3753815 48.4615385,24.969789 C48.4615385,27.8165771 46.7298462,30.2305559 44.3220513,31.1144622 L44.3220513,31.1144622 Z M19.3796923,27.5810139 C18.8045128,26.4863633 17.7001026,25.7448399 16.4324103,25.7448399 C14.5702564,25.7448399 13.0613333,27.340661 13.0613333,29.3087678 C13.0613333,31.2768746 14.5702564,32.8722603 16.4324103,32.8722603 C16.7762051,32.8722603 17.1076923,32.8173971 17.4203077,32.7159438 L15.8186667,32.1416224 C14.528,31.4109845 14.0422564,29.7124039 14.7335385,28.3477918 C15.4252308,26.9840505 17.0317949,26.4711235 18.321641,27.2017614 L19.3796923,27.5810139 L19.3796923,27.5810139 Z M42.2844253,29.5566745 C44.6728761,29.5566745 46.6108718,27.5096458 46.6108718,24.9845309 C46.6108718,23.2135576 45.6584963,21.6781075 44.2661957,20.9182666 C43.6723772,20.5941932 42.9985347,20.4112059 42.2844253,20.4112059 C39.8959745,20.4112059 37.9602051,22.4582345 37.9602051,24.9845309 C37.9602051,27.5096458 39.8959745,29.5566745 42.2844253,29.5566745 Z M38.417641,36.264632 C38.417641,34.1389025 36.7876923,32.4155028 34.7774359,32.4155028 C34.4951795,32.4155028 34.2227692,32.452949 33.9593846,32.5165206 L35.9938462,33.2462877 C37.2841026,33.9777964 37.7686154,35.6759416 37.0773333,37.0392475 C36.3864615,38.4047304 34.7798974,38.917222 33.4900513,38.1865841 L31.297641,37.3997768 C31.7558974,38.9712143 33.1405128,40.1133258 34.7774359,40.1133258 C36.7876923,40.1137612 38.417641,38.3899261 38.417641,36.264632 L38.417641,36.264632 Z" fill="#FFFFFF"/></g></g></svg>